<svg xmlns="http://www.w3.org/2000/svg" width="24" height="25" fill="none" viewBox="0 0 24 25">
    <path stroke="#2563eb" stroke-linecap="round" stroke-linejoin="round" stroke-width="2" d="M20 13.253c0 5-3.5 7.5-7.66 8.95a1 1 0 0 1-.67-.01C7.5 20.753 4 18.253 4 13.253v-7a1 1 0 0 1 1-1c2 0 4.5-1.2 6.24-2.72a1.17 1.17 0 0 1 1.52 0c1.75 1.53 4.24 2.72 6.24 2.72a1 1 0 0 1 1 1z"/>
    <path stroke="#2563eb" stroke-linecap="round" stroke-linejoin="round" stroke-width="2" d="M9.1 9.253a3 3 0 0 1 5.82 1c0 2-3 3-3 3m.08 4h.01"/>
</svg>
