<svg xmlns="http://www.w3.org/2000/svg" width="24" height="24" fill="none" viewBox="0 0 24 24">
    <path fill="#3B82F6" d="M22.5 16.84V7.16a2 2 0 0 0-1.008-1.736l-8.5-4.857a2 2 0 0 0-1.984 0l-8.5 4.857A2 2 0 0 0 1.5 7.161v9.678a2 2 0 0 0 1.008 1.737l8.5 4.857a2 2 0 0 0 1.984 0l8.5-4.857a2 2 0 0 0 1.008-1.737"/>
    <path fill="#1E40AF" d="M1.5 16.84a2 2 0 0 0 1.008 1.736l8.52 4.868A.65.65 0 0 0 12 22.88v-9.72a2 2 0 0 0-1.008-1.736l-8.52-4.868a.65.65 0 0 0-.972.564z"/>
    <path fill="#fff" stroke="#1E40AF" d="M19.647 14a1 1 0 0 0-1-1h-1.294a1 1 0 0 0-1 1v2.353H14a1 1 0 0 0-1 1v1.294a1 1 0 0 0 1 1h2.353V22a1 1 0 0 0 1 1h1.294a1 1 0 0 0 1-1v-2.353H22a1 1 0 0 0 1-1v-1.294a1 1 0 0 0-1-1h-2.353z"/>
</svg>
