<svg xmlns="http://www.w3.org/2000/svg" width="103" height="116" fill="none" viewBox="0 0 103 116">
    <path fill="#63A0FF" fill-rule="evenodd" d="M44.733 1.563a11.46 11.46 0 0 1 6.04-1.56c1.932.048 3.821.584 5.494 1.56L95.236 24.24C98.803 26.318 101 30.157 101 34.311v45.377a11.65 11.65 0 0 1-5.764 10.06l-38.969 22.694a11.46 11.46 0 0 1-11.534 0L5.77 89.747C2.204 87.673.005 83.84 0 79.687V34.312c.001-4.155 2.2-7.995 5.77-10.072zm8.939 24.942a6.3 6.3 0 0 0-6.34 0L25.896 38.98a6.41 6.41 0 0 0-3.17 5.54v24.96a6.41 6.41 0 0 0 3.17 5.528L47.33 87.494a6.3 6.3 0 0 0 6.34 0l21.434-12.486a6.41 6.41 0 0 0 3.171-5.528V44.52a6.41 6.41 0 0 0-3.17-5.54z" clip-rule="evenodd"/>
    <path fill="#3874D8" d="M99.94 28 77.903 40.892c.558.977.852 2.085.853 3.214V69.19a6.45 6.45 0 0 1-3.17 5.563L54.159 87.3a6.3 6.3 0 0 1-3.159.853v25.784c2.02 0 4.003-.537 5.753-1.557l8.669-5.075 11.061 6.511c4.947 2.912 12.913 2.912 17.86 0l4.946-2.911c4.948-2.912 4.948-7.601 0-10.513l-11-6.475 7.433-4.351c3.564-2.087 5.761-5.94 5.765-10.113v-45.61A11.8 11.8 0 0 0 99.939 28"/>
    <path fill="#99BFFF" d="M2 28.27 24.057 41a6.35 6.35 0 0 1 2.321-2.325l21.456-12.379a6.36 6.36 0 0 1 6.346.002l21.457 12.376a6.35 6.35 0 0 1 2.31 2.316L100 28.267a11.54 11.54 0 0 0-4.21-4.216L56.768 1.543a11.56 11.56 0 0 0-11.535-.003L6.224 24.048A11.54 11.54 0 0 0 2 28.272z"/>
</svg>
