<svg xmlns="http://www.w3.org/2000/svg" xml:space="preserve" width="48" height="48" viewBox="0 0 48 48">
    <g stroke="#737373" stroke-linecap="round" stroke-linejoin="round" stroke-width="4.4" style="fill:none">
        <path d="M43.8 24A19.8 19.8 0 0 0 24 4.2a21.45 21.45 0 0 0-14.828 6.028L4.2 15.2"/>
        <path d="M4.2 4.2v11h11M4.2 24A19.8 19.8 0 0 0 24 43.8a21.45 21.45 0 0 0 14.828-6.028L43.8 32.8"/>
        <path d="M32.8 32.8h11v11"/>
    </g>
    <g style="fill:#737373;fill-opacity:1;stroke:#737373;stroke-width:7.52458;stroke-linecap:round;stroke-linejoin:round;stroke-dasharray:none">
        <path d="M11.525 2.295a.53.53 0 0 1 .95 0l2.31 4.679a2.12 2.12 0 0 0 1.595 1.16l5.166.756a.53.53 0 0 1 .294.904l-3.736 3.638a2.12 2.12 0 0 0-.611 1.878l.882 5.14a.53.53 0 0 1-.771.56l-4.618-2.428a2.12 2.12 0 0 0-1.973 0L6.396 21.01a.53.53 0 0 1-.77-.56l.881-5.139a2.12 2.12 0 0 0-.611-1.879L2.16 9.795a.53.53 0 0 1 .294-.906l5.165-.755a2.12 2.12 0 0 0 1.597-1.16z" style="fill:#737373;fill-opacity:1;stroke-width:7.52458;stroke-dasharray:none" transform="translate(16.824 17.071)scale(.59794)"/>
    </g>
</svg>
