<svg xmlns="http://www.w3.org/2000/svg" xml:space="preserve" id="svg1" width="40" height="40" version="1.1" viewBox="0 0 10.583 10.583">
    <g id="layer1" transform="translate(-99.663 -143.208)">
        <g id="g1" stroke="#fff" stroke-linecap="round" stroke-linejoin="round" stroke-width="4" style="fill:none" transform="translate(98.605 142.15)scale(.26458)">
            <path id="path1" d="M42 24A18 18 0 0 0 24 6a19.5 19.5 0 0 0-13.48 5.48L6 16"/>
            <path id="path2" d="M6 6v10h10"/>
            <path id="path3" d="M6 24a18 18 0 0 0 18 18 19.5 19.5 0 0 0 13.48-5.48L42 32"/>
            <path id="path4" d="M32 32h10v10"/>
        </g>
        <g id="g2" style="fill:#fff;fill-opacity:1;stroke:#fff;stroke-width:7.52458;stroke-linecap:round;stroke-linejoin:round;stroke-dasharray:none" transform="translate(103.229 146.833)scale(.14382)">
            <path id="path1-7" d="M11.525 2.295a.53.53 0 0 1 .95 0l2.31 4.679a2.12 2.12 0 0 0 1.595 1.16l5.166.756a.53.53 0 0 1 .294.904l-3.736 3.638a2.12 2.12 0 0 0-.611 1.878l.882 5.14a.53.53 0 0 1-.771.56l-4.618-2.428a2.12 2.12 0 0 0-1.973 0L6.396 21.01a.53.53 0 0 1-.77-.56l.881-5.139a2.12 2.12 0 0 0-.611-1.879L2.16 9.795a.53.53 0 0 1 .294-.906l5.165-.755a2.12 2.12 0 0 0 1.597-1.16z" style="fill:#fff;fill-opacity:1;stroke-width:7.52458;stroke-dasharray:none"/>
        </g>
    </g>
</svg>
