<svg xmlns="http://www.w3.org/2000/svg" xml:space="preserve" width="40" height="40" viewBox="0 0 10.583 10.583">
    <g stroke="#737373" stroke-linecap="round" stroke-linejoin="round" stroke-width="4" style="fill:none">
        <path stroke-width="1.05832" d="M10.054 5.292A4.76 4.76 0 0 0 5.292.529a5.16 5.16 0 0 0-3.567 1.45L.53 3.175"/>
        <path stroke-width="1.05832" d="M.53.53v2.645h2.645M.53 5.292a4.76 4.76 0 0 0 4.762 4.762 5.16 5.16 0 0 0 3.566-1.45l1.196-1.196"/>
        <path stroke-width="1.05832" d="M7.408 7.408h2.646v2.646"/>
    </g>
    <g style="fill:#737373;fill-opacity:1;stroke:#737373;stroke-width:7.52458;stroke-linecap:round;stroke-linejoin:round;stroke-dasharray:none">
        <path d="M11.525 2.295a.53.53 0 0 1 .95 0l2.31 4.679a2.12 2.12 0 0 0 1.595 1.16l5.166.756a.53.53 0 0 1 .294.904l-3.736 3.638a2.12 2.12 0 0 0-.611 1.878l.882 5.14a.53.53 0 0 1-.771.56l-4.618-2.428a2.12 2.12 0 0 0-1.973 0L6.396 21.01a.53.53 0 0 1-.77-.56l.881-5.139a2.12 2.12 0 0 0-.611-1.879L2.16 9.795a.53.53 0 0 1 .294-.906l5.165-.755a2.12 2.12 0 0 0 1.597-1.16z" style="fill:#737373;fill-opacity:1;stroke-width:7.52458;stroke-dasharray:none" transform="matrix(.14382 0 0 .14382 3.566 3.625)"/>
    </g>
</svg>
