<svg xmlns="http://www.w3.org/2000/svg" width="24" height="25" fill="none">
    <path stroke="#fff" stroke-linecap="round" stroke-linejoin="round" stroke-width="2" d="M10 8.645a1 1 0 1 0 0-2 1 1 0 0 0 0 2M4 21.645a1 1 0 1 0 0-2 1 1 0 0 0 0 2M4.7 19.945 19 5.645M21 3.645l-3 1 2 2z"/>
    <path stroke="#fff" stroke-linecap="round" stroke-linejoin="round" stroke-width="2" d="M9.26 8.324 5 12.644l2 5M10 14.645l5 2 3.5-3.5"/>
    <path stroke="#fff" stroke-linecap="round" stroke-linejoin="round" stroke-width="2" d="m18 12.645 1-1 1 1-1 1z"/>
</svg>
